<svg width="0" height="0" style="position:absolute" xmlns="http://www.w3.org/2000/svg" xmlns:xlink="http://www.w3.org/1999/xlink"><symbol viewBox="0 0 20 20" id="icon-bug" xmlns="http://www.w3.org/2000/svg"><path d="M17.5 12h-1.515a8.318 8.318 0 0 0-.781-3.102A2.504 2.504 0 0 0 16.999 6.5a.5.5 0 0 0-1 0c0 .761-.57 1.392-1.306 1.487a7.452 7.452 0 0 0-.904-1.124A4.505 4.505 0 0 0 9.499 1a4.505 4.505 0 0 0-4.29 5.863 7.211 7.211 0 0 0-.904 1.124A1.502 1.502 0 0 1 2.999 6.5a.5.5 0 0 0-1 0c0 1.134.759 2.093 1.795 2.398A8.337 8.337 0 0 0 3.013 12H1.499a.5.5 0 0 0 0 1h1.515a8.318 8.318 0 0 0 .781 3.102A2.504 2.504 0 0 0 2 18.5a.5.5 0 0 0 1 0c0-.761.57-1.392 1.306-1.487.174.266.365.521.571.762C6.107 19.21 7.748 20 9.499 20s3.393-.79 4.622-2.225c.207-.241.397-.496.571-.762a1.502 1.502 0 0 1 1.306 1.487.5.5 0 0 0 1 0 2.504 2.504 0 0 0-1.795-2.398A8.337 8.337 0 0 0 15.984 13h1.514a.5.5 0 0 0 0-1zm-8-10a3.504 3.504 0 0 1 3.443 4.134C11.921 5.396 10.738 5 9.5 5s-2.421.395-3.443 1.134A3.504 3.504 0 0 1 9.5 2zM4 12.5c0-3.385 2.201-6.173 5-6.473v12.946c-2.799-.3-5-3.088-5-6.473zm6 6.473V6.027c2.799.3 5 3.088 5 6.473s-2.201 6.173-5 6.473z"/></symbol><symbol viewBox="0 0 20 20" id="icon-bullhorn" xmlns="http://www.w3.org/2000/svg"><path d="M19.389 3.099C18.811 1.364 18.043 1 17.5 1l-.035.001c-.553.012-1.536.299-3.008.731-3.084.903-7.744 2.269-12.458 2.269-1.14 0-2 1.505-2 3.5s.86 3.5 2 3.5c.369 0 .738.008 1.105.024l1.666 6.628c.19.756.949 1.348 1.729 1.348h1.313c.433 0 .801-.18 1.008-.495s.229-.723.06-1.121l-2.577-6.048c3.136.462 6.022 1.308 8.154 1.932 1.472.431 2.455.719 3.008.731l.035.001c.542 0 1.31-.364 1.889-2.099.394-1.183.611-2.746.611-4.401s-.217-3.218-.611-4.401zM16 7.5c0-.513.022-1.015.064-1.496.513.052.936.716.936 1.496s-.422 1.445-.936 1.496A17.253 17.253 0 0 1 16 7.5zm-15 0C1 5.974 1.592 5 2 5c1.135 0 2.264-.076 3.368-.204C5.131 5.554 5 6.493 5 7.5s.13 1.946.368 2.704A29.297 29.297 0 0 0 2 10c-.408 0-1-.974-1-2.5zm6.961 10.276c.041.096.038.16.026.178S7.918 18 7.813 18H6.5c-.319 0-.681-.282-.759-.592l-1.588-6.319c.335.027.669.059 1 .097l2.808 6.59zm-1.472-7.423C6.185 9.666 6 8.605 6 7.5c0-1.122.18-2.163.488-2.852 3.185-.473 6.096-1.325 8.25-1.957.415-.122.811-.238 1.171-.339a6.519 6.519 0 0 0-.298.747C15.217 4.282 15 5.845 15 7.5s.217 3.218.611 4.401c.095.284.195.532.298.747-.36-.101-.756-.217-1.171-.339-2.155-.631-5.065-1.484-8.25-1.957zm11.951 1.232c-.373 1.12-.778 1.415-.94 1.415s-.567-.296-.94-1.415a9.947 9.947 0 0 1-.375-1.596c.486-.056.943-.331 1.276-.775C17.809 8.75 18 8.141 18 7.5s-.192-1.251-.539-1.714c-.333-.444-.79-.719-1.276-.775.093-.586.219-1.126.375-1.596.373-1.12.778-1.416.94-1.416s.567.296.94 1.415c.361 1.084.56 2.534.56 4.085s-.199 3.001-.56 4.085z"/></symbol><symbol viewBox="0 0 20 20" id="icon-construction" xmlns="http://www.w3.org/2000/svg"><path d="M20 5V3.5a.5.5 0 0 0-.5-.5H.5a.5.5 0 0 0-.5.5v6a.5.5 0 0 0 .5.5H2v6h-.5a.5.5 0 0 0 0 1h4a.5.5 0 0 0 0-1H5v-3h10v3h-.5a.5.5 0 0 0 0 1h4a.5.5 0 0 0 0-1H18v-6h1.5a.5.5 0 0 0 .5-.5V5zm-1-.207L14.793 9h-3.586l5-5H19v.793zM6.207 9l5-5h3.586l-5 5H6.207zm-5 0 5-5h3.586l-5 5H1.207zm3.586-5L1 7.793V4h3.793zM3 16v-6h1v6H3zm2-4v-2h10v2H5zm12 4h-1v-6h1v6zm-.793-7L19 6.207V9h-2.793z"/></symbol></svg>